<svg width="390" height="390" viewBox="0 0 390 390" fill="none" xmlns="http://www.w3.org/2000/svg">
<g filter="url(#filter0_b_102_1078)">
<rect width="390" height="390" rx="32" fill="url(#paint0_radial_102_1078)" fill-opacity="0.6"/>
<rect x="0.5" y="0.5" width="389" height="389" rx="31.5" stroke="white" stroke-opacity="0.3" style="mix-blend-mode:overlay"/>
</g>
<path d="M145 163.75C145 156.855 150.605 151.25 157.5 151.25H232.5C239.395 151.25 245 156.855 245 163.75V226.25C245 233.145 239.395 238.75 232.5 238.75H157.5C150.605 238.75 145 233.145 145 226.25V163.75ZM208.242 184.551C207.363 183.262 205.918 182.5 204.375 182.5C202.832 182.5 201.367 183.262 200.508 184.551L183.516 209.473L178.34 203.008C177.441 201.895 176.094 201.25 174.688 201.25C173.281 201.25 171.914 201.895 171.035 203.008L158.535 218.633C157.402 220.039 157.188 221.973 157.969 223.594C158.75 225.215 160.391 226.25 162.188 226.25H180.938H187.188H227.812C229.551 226.25 231.152 225.293 231.953 223.75C232.754 222.207 232.656 220.352 231.68 218.926L208.242 184.551ZM166.875 182.5C172.051 182.5 176.25 178.301 176.25 173.125C176.25 167.949 172.051 163.75 166.875 163.75C161.699 163.75 157.5 167.949 157.5 173.125C157.5 178.301 161.699 182.5 166.875 182.5Z" fill="#480CA8"/>
<path d="M52.6775 304.28C50.9602 304.28 49.5322 303.963 48.3935 303.328C47.2735 302.693 46.4242 301.807 45.8455 300.668C45.2669 299.529 44.9495 298.204 44.8935 296.692C44.8749 295.927 44.8655 295.105 44.8655 294.228C44.8655 293.351 44.8749 292.511 44.8935 291.708C44.9495 290.196 45.2669 288.871 45.8455 287.732C46.4242 286.593 47.2735 285.707 48.3935 285.072C49.5322 284.437 50.9602 284.12 52.6775 284.12C53.9655 284.12 55.0949 284.297 56.0655 284.652C57.0362 285.007 57.8389 285.483 58.4735 286.08C59.1269 286.677 59.6215 287.349 59.9575 288.096C60.2935 288.824 60.4802 289.58 60.5175 290.364C60.5362 290.532 60.4802 290.672 60.3495 290.784C60.2375 290.896 60.0975 290.952 59.9295 290.952H58.3895C58.2215 290.952 58.0722 290.905 57.9415 290.812C57.8295 290.719 57.7455 290.551 57.6895 290.308C57.3722 288.852 56.7749 287.853 55.8975 287.312C55.0389 286.771 53.9562 286.5 52.6495 286.5C51.1562 286.5 49.9709 286.929 49.0935 287.788C48.2162 288.628 47.7402 289.981 47.6655 291.848C47.6095 293.379 47.6095 294.947 47.6655 296.552C47.7402 298.419 48.2162 299.781 49.0935 300.64C49.9709 301.48 51.1562 301.9 52.6495 301.9C53.9562 301.9 55.0389 301.629 55.8975 301.088C56.7749 300.547 57.3722 299.548 57.6895 298.092C57.7455 297.849 57.8295 297.681 57.9415 297.588C58.0722 297.495 58.2215 297.448 58.3895 297.448H59.9295C60.0975 297.448 60.2375 297.504 60.3495 297.616C60.4802 297.728 60.5362 297.868 60.5175 298.036C60.4802 298.82 60.2935 299.585 59.9575 300.332C59.6215 301.06 59.1269 301.723 58.4735 302.32C57.8389 302.917 57.0362 303.393 56.0655 303.748C55.0949 304.103 53.9655 304.28 52.6775 304.28ZM64.578 304C64.3913 304 64.2327 303.944 64.102 303.832C63.99 303.701 63.934 303.543 63.934 303.356V284.764C63.934 284.577 63.99 284.428 64.102 284.316C64.2327 284.185 64.3913 284.12 64.578 284.12H65.894C66.0993 284.12 66.258 284.185 66.37 284.316C66.482 284.428 66.538 284.577 66.538 284.764V303.356C66.538 303.543 66.482 303.701 66.37 303.832C66.258 303.944 66.0993 304 65.894 304H64.578ZM71.632 304C71.4453 304 71.2867 303.944 71.156 303.832C71.044 303.701 70.988 303.543 70.988 303.356V290.084C70.988 289.897 71.044 289.748 71.156 289.636C71.2867 289.505 71.4453 289.44 71.632 289.44H72.976C73.1627 289.44 73.312 289.505 73.424 289.636C73.536 289.748 73.592 289.897 73.592 290.084V303.356C73.592 303.543 73.536 303.701 73.424 303.832C73.312 303.944 73.1627 304 72.976 304H71.632ZM71.408 286.724C71.2213 286.724 71.0627 286.668 70.932 286.556C70.82 286.425 70.764 286.267 70.764 286.08V284.568C70.764 284.381 70.82 284.232 70.932 284.12C71.0627 283.989 71.2213 283.924 71.408 283.924H73.172C73.3587 283.924 73.508 283.989 73.62 284.12C73.7507 284.232 73.816 284.381 73.816 284.568V286.08C73.816 286.267 73.7507 286.425 73.62 286.556C73.508 286.668 73.3587 286.724 73.172 286.724H71.408ZM83.704 304.28C82.3786 304.28 81.2306 304.028 80.26 303.524C79.308 303.001 78.5706 302.264 78.048 301.312C77.5253 300.341 77.2453 299.184 77.208 297.84C77.1893 297.56 77.18 297.187 77.18 296.72C77.18 296.253 77.1893 295.88 77.208 295.6C77.2453 294.256 77.5253 293.108 78.048 292.156C78.5706 291.185 79.308 290.448 80.26 289.944C81.2306 289.421 82.3786 289.16 83.704 289.16C84.7866 289.16 85.7106 289.309 86.476 289.608C87.26 289.907 87.904 290.289 88.408 290.756C88.912 291.223 89.2853 291.727 89.528 292.268C89.7893 292.809 89.9293 293.323 89.948 293.808C89.9666 293.995 89.9106 294.144 89.78 294.256C89.6493 294.368 89.4906 294.424 89.304 294.424H87.96C87.7733 294.424 87.6333 294.387 87.54 294.312C87.4466 294.219 87.3533 294.069 87.26 293.864C86.924 292.949 86.4666 292.305 85.888 291.932C85.3093 291.559 84.5906 291.372 83.732 291.372C82.612 291.372 81.6973 291.717 80.988 292.408C80.2973 293.099 79.924 294.209 79.868 295.74C79.8493 296.412 79.8493 297.065 79.868 297.7C79.924 299.249 80.2973 300.369 80.988 301.06C81.6973 301.732 82.612 302.068 83.732 302.068C84.5906 302.068 85.3093 301.881 85.888 301.508C86.4666 301.135 86.924 300.491 87.26 299.576C87.3533 299.371 87.4466 299.231 87.54 299.156C87.6333 299.063 87.7733 299.016 87.96 299.016H89.304C89.4906 299.016 89.6493 299.072 89.78 299.184C89.9106 299.296 89.9666 299.445 89.948 299.632C89.9293 300.024 89.8453 300.425 89.696 300.836C89.5466 301.247 89.304 301.667 88.968 302.096C88.6506 302.507 88.2493 302.88 87.764 303.216C87.2786 303.533 86.6906 303.795 86 304C85.328 304.187 84.5626 304.28 83.704 304.28ZM93.9452 304C93.7585 304 93.5998 303.944 93.4692 303.832C93.3572 303.701 93.3012 303.543 93.3012 303.356V284.764C93.3012 284.577 93.3572 284.428 93.4692 284.316C93.5998 284.185 93.7585 284.12 93.9452 284.12H95.2612C95.4478 284.12 95.5972 284.185 95.7092 284.316C95.8398 284.428 95.9052 284.577 95.9052 284.764V294.508L101.421 289.916C101.645 289.729 101.813 289.608 101.925 289.552C102.056 289.477 102.261 289.44 102.541 289.44H104.025C104.193 289.44 104.333 289.496 104.445 289.608C104.557 289.72 104.613 289.86 104.613 290.028C104.613 290.103 104.585 290.187 104.529 290.28C104.492 290.373 104.408 290.467 104.277 290.56L97.8092 295.936L104.977 302.908C105.201 303.095 105.313 303.263 105.313 303.412C105.313 303.58 105.257 303.72 105.145 303.832C105.033 303.944 104.893 304 104.725 304H103.269C102.989 304 102.784 303.972 102.653 303.916C102.523 303.841 102.355 303.711 102.149 303.524L95.9052 297.56V303.356C95.9052 303.543 95.8398 303.701 95.7092 303.832C95.5972 303.944 95.4478 304 95.2612 304H93.9452ZM119.383 304C118.338 304 117.488 303.804 116.835 303.412C116.182 303.001 115.706 302.432 115.407 301.704C115.108 300.957 114.959 300.08 114.959 299.072V291.68H112.775C112.588 291.68 112.43 291.624 112.299 291.512C112.187 291.381 112.131 291.223 112.131 291.036V290.084C112.131 289.897 112.187 289.748 112.299 289.636C112.43 289.505 112.588 289.44 112.775 289.44H114.959V284.764C114.959 284.577 115.015 284.428 115.127 284.316C115.258 284.185 115.416 284.12 115.603 284.12H116.919C117.106 284.12 117.255 284.185 117.367 284.316C117.498 284.428 117.563 284.577 117.563 284.764V289.44H121.035C121.222 289.44 121.371 289.505 121.483 289.636C121.614 289.748 121.679 289.897 121.679 290.084V291.036C121.679 291.223 121.614 291.381 121.483 291.512C121.371 291.624 121.222 291.68 121.035 291.68H117.563V298.876C117.563 299.753 117.712 300.444 118.011 300.948C118.31 301.452 118.842 301.704 119.607 301.704H121.315C121.502 301.704 121.651 301.769 121.763 301.9C121.894 302.012 121.959 302.161 121.959 302.348V303.356C121.959 303.543 121.894 303.701 121.763 303.832C121.651 303.944 121.502 304 121.315 304H119.383ZM130.6 304.28C129.182 304.28 127.996 304.009 127.044 303.468C126.092 302.927 125.364 302.18 124.86 301.228C124.356 300.257 124.076 299.156 124.02 297.924C124.002 297.607 123.992 297.205 123.992 296.72C123.992 296.216 124.002 295.815 124.02 295.516C124.076 294.265 124.356 293.164 124.86 292.212C125.383 291.26 126.12 290.513 127.072 289.972C128.024 289.431 129.2 289.16 130.6 289.16C132 289.16 133.176 289.431 134.128 289.972C135.08 290.513 135.808 291.26 136.312 292.212C136.835 293.164 137.124 294.265 137.18 295.516C137.199 295.815 137.208 296.216 137.208 296.72C137.208 297.205 137.199 297.607 137.18 297.924C137.124 299.156 136.844 300.257 136.34 301.228C135.836 302.18 135.108 302.927 134.156 303.468C133.204 304.009 132.019 304.28 130.6 304.28ZM130.6 302.124C131.758 302.124 132.682 301.76 133.372 301.032C134.063 300.285 134.436 299.203 134.492 297.784C134.511 297.504 134.52 297.149 134.52 296.72C134.52 296.291 134.511 295.936 134.492 295.656C134.436 294.237 134.063 293.164 133.372 292.436C132.682 291.689 131.758 291.316 130.6 291.316C129.443 291.316 128.51 291.689 127.8 292.436C127.11 293.164 126.746 294.237 126.708 295.656C126.69 295.936 126.68 296.291 126.68 296.72C126.68 297.149 126.69 297.504 126.708 297.784C126.746 299.203 127.11 300.285 127.8 301.032C128.51 301.76 129.443 302.124 130.6 302.124ZM151.638 304.28C150.705 304.28 149.855 304.093 149.09 303.72C148.325 303.347 147.709 302.843 147.242 302.208C146.775 301.573 146.542 300.855 146.542 300.052C146.542 298.764 147.065 297.737 148.11 296.972C149.155 296.207 150.518 295.703 152.198 295.46L156.37 294.872V294.06C156.37 293.164 156.109 292.464 155.586 291.96C155.082 291.456 154.251 291.204 153.094 291.204C152.254 291.204 151.573 291.372 151.05 291.708C150.546 292.044 150.191 292.473 149.986 292.996C149.874 293.276 149.678 293.416 149.398 293.416H148.138C147.933 293.416 147.774 293.36 147.662 293.248C147.569 293.117 147.522 292.968 147.522 292.8C147.522 292.52 147.625 292.175 147.83 291.764C148.054 291.353 148.39 290.952 148.838 290.56C149.286 290.168 149.855 289.841 150.546 289.58C151.255 289.3 152.114 289.16 153.122 289.16C154.242 289.16 155.185 289.309 155.95 289.608C156.715 289.888 157.313 290.271 157.742 290.756C158.19 291.241 158.507 291.792 158.694 292.408C158.899 293.024 159.002 293.649 159.002 294.284V303.356C159.002 303.543 158.937 303.701 158.806 303.832C158.694 303.944 158.545 304 158.358 304H157.07C156.865 304 156.706 303.944 156.594 303.832C156.482 303.701 156.426 303.543 156.426 303.356V302.152C156.183 302.488 155.857 302.824 155.446 303.16C155.035 303.477 154.522 303.748 153.906 303.972C153.29 304.177 152.534 304.28 151.638 304.28ZM152.226 302.18C152.991 302.18 153.691 302.021 154.326 301.704C154.961 301.368 155.455 300.855 155.81 300.164C156.183 299.473 156.37 298.605 156.37 297.56V296.776L153.122 297.252C151.797 297.439 150.798 297.756 150.126 298.204C149.454 298.633 149.118 299.184 149.118 299.856C149.118 300.379 149.267 300.817 149.566 301.172C149.883 301.508 150.275 301.76 150.742 301.928C151.227 302.096 151.722 302.18 152.226 302.18ZM168.347 304.28C167.32 304.28 166.434 304.103 165.687 303.748C164.94 303.375 164.324 302.88 163.839 302.264C163.372 301.629 163.018 300.911 162.775 300.108C162.551 299.305 162.42 298.456 162.383 297.56C162.364 297.261 162.355 296.981 162.355 296.72C162.355 296.459 162.364 296.179 162.383 295.88C162.42 295.003 162.551 294.163 162.775 293.36C163.018 292.557 163.372 291.839 163.839 291.204C164.324 290.569 164.94 290.075 165.687 289.72C166.434 289.347 167.32 289.16 168.347 289.16C169.448 289.16 170.363 289.356 171.091 289.748C171.819 290.14 172.416 290.625 172.883 291.204V284.764C172.883 284.577 172.939 284.428 173.051 284.316C173.182 284.185 173.34 284.12 173.527 284.12H174.871C175.058 284.12 175.207 284.185 175.319 284.316C175.45 284.428 175.515 284.577 175.515 284.764V303.356C175.515 303.543 175.45 303.701 175.319 303.832C175.207 303.944 175.058 304 174.871 304H173.611C173.406 304 173.247 303.944 173.135 303.832C173.023 303.701 172.967 303.543 172.967 303.356V302.18C172.5 302.777 171.894 303.281 171.147 303.692C170.4 304.084 169.467 304.28 168.347 304.28ZM168.935 302.012C169.868 302.012 170.615 301.797 171.175 301.368C171.735 300.939 172.155 300.397 172.435 299.744C172.715 299.072 172.864 298.391 172.883 297.7C172.902 297.401 172.911 297.047 172.911 296.636C172.911 296.207 172.902 295.843 172.883 295.544C172.864 294.891 172.706 294.247 172.407 293.612C172.127 292.977 171.698 292.455 171.119 292.044C170.559 291.633 169.831 291.428 168.935 291.428C167.983 291.428 167.227 291.643 166.667 292.072C166.107 292.483 165.706 293.033 165.463 293.724C165.22 294.396 165.08 295.124 165.043 295.908C165.024 296.449 165.024 296.991 165.043 297.532C165.08 298.316 165.22 299.053 165.463 299.744C165.706 300.416 166.107 300.967 166.667 301.396C167.227 301.807 167.983 302.012 168.935 302.012ZM184.999 304.28C183.973 304.28 183.086 304.103 182.339 303.748C181.593 303.375 180.977 302.88 180.491 302.264C180.025 301.629 179.67 300.911 179.427 300.108C179.203 299.305 179.073 298.456 179.035 297.56C179.017 297.261 179.007 296.981 179.007 296.72C179.007 296.459 179.017 296.179 179.035 295.88C179.073 295.003 179.203 294.163 179.427 293.36C179.67 292.557 180.025 291.839 180.491 291.204C180.977 290.569 181.593 290.075 182.339 289.72C183.086 289.347 183.973 289.16 184.999 289.16C186.101 289.16 187.015 289.356 187.743 289.748C188.471 290.14 189.069 290.625 189.535 291.204V284.764C189.535 284.577 189.591 284.428 189.703 284.316C189.834 284.185 189.993 284.12 190.179 284.12H191.523C191.71 284.12 191.859 284.185 191.971 284.316C192.102 284.428 192.167 284.577 192.167 284.764V303.356C192.167 303.543 192.102 303.701 191.971 303.832C191.859 303.944 191.71 304 191.523 304H190.263C190.058 304 189.899 303.944 189.787 303.832C189.675 303.701 189.619 303.543 189.619 303.356V302.18C189.153 302.777 188.546 303.281 187.799 303.692C187.053 304.084 186.119 304.28 184.999 304.28ZM185.587 302.012C186.521 302.012 187.267 301.797 187.827 301.368C188.387 300.939 188.807 300.397 189.087 299.744C189.367 299.072 189.517 298.391 189.535 297.7C189.554 297.401 189.563 297.047 189.563 296.636C189.563 296.207 189.554 295.843 189.535 295.544C189.517 294.891 189.358 294.247 189.059 293.612C188.779 292.977 188.35 292.455 187.771 292.044C187.211 291.633 186.483 291.428 185.587 291.428C184.635 291.428 183.879 291.643 183.319 292.072C182.759 292.483 182.358 293.033 182.115 293.724C181.873 294.396 181.733 295.124 181.695 295.908C181.677 296.449 181.677 296.991 181.695 297.532C181.733 298.316 181.873 299.053 182.115 299.744C182.358 300.416 182.759 300.967 183.319 301.396C183.879 301.807 184.635 302.012 185.587 302.012ZM204.977 309.32C204.828 309.32 204.697 309.264 204.585 309.152C204.473 309.04 204.417 308.909 204.417 308.76C204.417 308.685 204.427 308.611 204.445 308.536C204.464 308.461 204.501 308.368 204.557 308.256L206.713 303.132L201.365 290.504C201.272 290.28 201.225 290.121 201.225 290.028C201.225 289.86 201.281 289.72 201.393 289.608C201.505 289.496 201.645 289.44 201.813 289.44H203.185C203.372 289.44 203.521 289.487 203.633 289.58C203.745 289.673 203.82 289.785 203.857 289.916L208.113 300.108L212.481 289.916C212.537 289.785 212.612 289.673 212.705 289.58C212.817 289.487 212.976 289.44 213.181 289.44H214.497C214.665 289.44 214.805 289.496 214.917 289.608C215.029 289.72 215.085 289.851 215.085 290C215.085 290.093 215.039 290.261 214.945 290.504L206.993 308.844C206.937 308.975 206.853 309.087 206.741 309.18C206.648 309.273 206.499 309.32 206.293 309.32H204.977ZM223.323 304.28C221.904 304.28 220.719 304.009 219.767 303.468C218.815 302.927 218.087 302.18 217.583 301.228C217.079 300.257 216.799 299.156 216.743 297.924C216.724 297.607 216.715 297.205 216.715 296.72C216.715 296.216 216.724 295.815 216.743 295.516C216.799 294.265 217.079 293.164 217.583 292.212C218.106 291.26 218.843 290.513 219.795 289.972C220.747 289.431 221.923 289.16 223.323 289.16C224.723 289.16 225.899 289.431 226.851 289.972C227.803 290.513 228.531 291.26 229.035 292.212C229.558 293.164 229.847 294.265 229.903 295.516C229.922 295.815 229.931 296.216 229.931 296.72C229.931 297.205 229.922 297.607 229.903 297.924C229.847 299.156 229.567 300.257 229.063 301.228C228.559 302.18 227.831 302.927 226.879 303.468C225.927 304.009 224.742 304.28 223.323 304.28ZM223.323 302.124C224.48 302.124 225.404 301.76 226.095 301.032C226.786 300.285 227.159 299.203 227.215 297.784C227.234 297.504 227.243 297.149 227.243 296.72C227.243 296.291 227.234 295.936 227.215 295.656C227.159 294.237 226.786 293.164 226.095 292.436C225.404 291.689 224.48 291.316 223.323 291.316C222.166 291.316 221.232 291.689 220.523 292.436C219.832 293.164 219.468 294.237 219.431 295.656C219.412 295.936 219.403 296.291 219.403 296.72C219.403 297.149 219.412 297.504 219.431 297.784C219.468 299.203 219.832 300.285 220.523 301.032C221.232 301.76 222.166 302.124 223.323 302.124ZM238.869 304.28C237.675 304.28 236.657 304.019 235.817 303.496C234.996 302.955 234.371 302.208 233.941 301.256C233.512 300.304 233.297 299.212 233.297 297.98V290.084C233.297 289.897 233.353 289.748 233.465 289.636C233.596 289.505 233.755 289.44 233.941 289.44H235.341C235.528 289.44 235.677 289.505 235.789 289.636C235.92 289.748 235.985 289.897 235.985 290.084V297.84C235.985 300.621 237.199 302.012 239.625 302.012C240.783 302.012 241.707 301.648 242.397 300.92C243.107 300.173 243.461 299.147 243.461 297.84V290.084C243.461 289.897 243.517 289.748 243.629 289.636C243.76 289.505 243.919 289.44 244.105 289.44H245.477C245.683 289.44 245.841 289.505 245.953 289.636C246.065 289.748 246.121 289.897 246.121 290.084V303.356C246.121 303.543 246.065 303.701 245.953 303.832C245.841 303.944 245.683 304 245.477 304H244.189C244.003 304 243.844 303.944 243.713 303.832C243.601 303.701 243.545 303.543 243.545 303.356V302.124C243.041 302.777 242.425 303.3 241.697 303.692C240.988 304.084 240.045 304.28 238.869 304.28ZM250.925 304C250.738 304 250.58 303.944 250.449 303.832C250.337 303.701 250.281 303.543 250.281 303.356V290.112C250.281 289.925 250.337 289.767 250.449 289.636C250.58 289.505 250.738 289.44 250.925 289.44H252.213C252.4 289.44 252.558 289.505 252.689 289.636C252.82 289.767 252.885 289.925 252.885 290.112V291.344C253.258 290.709 253.772 290.233 254.425 289.916C255.078 289.599 255.862 289.44 256.777 289.44H257.897C258.084 289.44 258.233 289.505 258.345 289.636C258.457 289.748 258.513 289.897 258.513 290.084V291.232C258.513 291.419 258.457 291.568 258.345 291.68C258.233 291.792 258.084 291.848 257.897 291.848H256.217C255.209 291.848 254.416 292.147 253.837 292.744C253.258 293.323 252.969 294.116 252.969 295.124V303.356C252.969 303.543 252.904 303.701 252.773 303.832C252.642 303.944 252.484 304 252.297 304H250.925ZM267.769 304C267.582 304 267.423 303.944 267.293 303.832C267.181 303.701 267.125 303.543 267.125 303.356V290.084C267.125 289.897 267.181 289.748 267.293 289.636C267.423 289.505 267.582 289.44 267.769 289.44H269.113C269.299 289.44 269.449 289.505 269.561 289.636C269.673 289.748 269.729 289.897 269.729 290.084V303.356C269.729 303.543 269.673 303.701 269.561 303.832C269.449 303.944 269.299 304 269.113 304H267.769ZM267.545 286.724C267.358 286.724 267.199 286.668 267.069 286.556C266.957 286.425 266.901 286.267 266.901 286.08V284.568C266.901 284.381 266.957 284.232 267.069 284.12C267.199 283.989 267.358 283.924 267.545 283.924H269.309C269.495 283.924 269.645 283.989 269.757 284.12C269.887 284.232 269.953 284.381 269.953 284.568V286.08C269.953 286.267 269.887 286.425 269.757 286.556C269.645 286.668 269.495 286.724 269.309 286.724H267.545ZM274.823 304C274.637 304 274.478 303.944 274.347 303.832C274.235 303.701 274.179 303.543 274.179 303.356V290.084C274.179 289.897 274.235 289.748 274.347 289.636C274.478 289.505 274.637 289.44 274.823 289.44H276.083C276.27 289.44 276.419 289.505 276.531 289.636C276.662 289.748 276.727 289.897 276.727 290.084V291.064C277.157 290.485 277.698 290.028 278.351 289.692C279.005 289.337 279.789 289.16 280.703 289.16C282.813 289.141 284.306 290 285.183 291.736C285.613 290.952 286.238 290.327 287.059 289.86C287.881 289.393 288.814 289.16 289.859 289.16C290.83 289.16 291.707 289.384 292.491 289.832C293.294 290.28 293.919 290.961 294.367 291.876C294.834 292.772 295.067 293.901 295.067 295.264V303.356C295.067 303.543 295.002 303.701 294.871 303.832C294.759 303.944 294.61 304 294.423 304H293.107C292.921 304 292.762 303.944 292.631 303.832C292.519 303.701 292.463 303.543 292.463 303.356V295.516C292.463 294.471 292.314 293.649 292.015 293.052C291.717 292.455 291.315 292.035 290.811 291.792C290.307 291.549 289.757 291.428 289.159 291.428C288.674 291.428 288.179 291.549 287.675 291.792C287.171 292.035 286.751 292.455 286.415 293.052C286.098 293.649 285.939 294.471 285.939 295.516V303.356C285.939 303.543 285.874 303.701 285.743 303.832C285.631 303.944 285.482 304 285.295 304H283.979C283.793 304 283.634 303.944 283.503 303.832C283.391 303.701 283.335 303.543 283.335 303.356V295.516C283.335 294.471 283.177 293.649 282.859 293.052C282.542 292.455 282.131 292.035 281.627 291.792C281.123 291.549 280.591 291.428 280.031 291.428C279.546 291.428 279.051 291.549 278.547 291.792C278.043 292.035 277.623 292.455 277.287 293.052C276.97 293.649 276.811 294.461 276.811 295.488V303.356C276.811 303.543 276.746 303.701 276.615 303.832C276.503 303.944 276.354 304 276.167 304H274.823ZM303.122 304.28C302.189 304.28 301.34 304.093 300.574 303.72C299.809 303.347 299.193 302.843 298.726 302.208C298.26 301.573 298.026 300.855 298.026 300.052C298.026 298.764 298.549 297.737 299.594 296.972C300.64 296.207 302.002 295.703 303.682 295.46L307.854 294.872V294.06C307.854 293.164 307.593 292.464 307.07 291.96C306.566 291.456 305.736 291.204 304.578 291.204C303.738 291.204 303.057 291.372 302.534 291.708C302.03 292.044 301.676 292.473 301.47 292.996C301.358 293.276 301.162 293.416 300.882 293.416H299.622C299.417 293.416 299.258 293.36 299.146 293.248C299.053 293.117 299.006 292.968 299.006 292.8C299.006 292.52 299.109 292.175 299.314 291.764C299.538 291.353 299.874 290.952 300.322 290.56C300.77 290.168 301.34 289.841 302.03 289.58C302.74 289.3 303.598 289.16 304.606 289.16C305.726 289.16 306.669 289.309 307.434 289.608C308.2 289.888 308.797 290.271 309.226 290.756C309.674 291.241 309.992 291.792 310.178 292.408C310.384 293.024 310.486 293.649 310.486 294.284V303.356C310.486 303.543 310.421 303.701 310.29 303.832C310.178 303.944 310.029 304 309.842 304H308.554C308.349 304 308.19 303.944 308.078 303.832C307.966 303.701 307.91 303.543 307.91 303.356V302.152C307.668 302.488 307.341 302.824 306.93 303.16C306.52 303.477 306.006 303.748 305.39 303.972C304.774 304.177 304.018 304.28 303.122 304.28ZM303.71 302.18C304.476 302.18 305.176 302.021 305.81 301.704C306.445 301.368 306.94 300.855 307.294 300.164C307.668 299.473 307.854 298.605 307.854 297.56V296.776L304.606 297.252C303.281 297.439 302.282 297.756 301.61 298.204C300.938 298.633 300.602 299.184 300.602 299.856C300.602 300.379 300.752 300.817 301.05 301.172C301.368 301.508 301.76 301.76 302.226 301.928C302.712 302.096 303.206 302.18 303.71 302.18ZM320.475 310.16C319.206 310.16 318.161 309.992 317.339 309.656C316.537 309.32 315.902 308.909 315.435 308.424C314.987 307.957 314.661 307.481 314.455 306.996C314.269 306.529 314.166 306.156 314.147 305.876C314.129 305.689 314.185 305.531 314.315 305.4C314.465 305.269 314.623 305.204 314.791 305.204H316.135C316.303 305.204 316.443 305.241 316.555 305.316C316.667 305.391 316.761 305.549 316.835 305.792C316.947 306.072 317.115 306.38 317.339 306.716C317.563 307.071 317.909 307.369 318.375 307.612C318.842 307.873 319.495 308.004 320.335 308.004C321.213 308.004 321.95 307.883 322.547 307.64C323.145 307.416 323.593 307.005 323.891 306.408C324.209 305.829 324.367 305.027 324.367 304V302.096C323.919 302.675 323.331 303.16 322.603 303.552C321.875 303.925 320.961 304.112 319.859 304.112C318.814 304.112 317.918 303.935 317.171 303.58C316.425 303.207 315.809 302.712 315.323 302.096C314.857 301.461 314.502 300.743 314.259 299.94C314.035 299.137 313.905 298.297 313.867 297.42C313.849 296.897 313.849 296.384 313.867 295.88C313.905 295.003 314.035 294.163 314.259 293.36C314.502 292.557 314.857 291.839 315.323 291.204C315.809 290.569 316.425 290.075 317.171 289.72C317.918 289.347 318.814 289.16 319.859 289.16C320.979 289.16 321.903 289.375 322.631 289.804C323.378 290.215 323.985 290.719 324.451 291.316V290.112C324.451 289.925 324.507 289.767 324.619 289.636C324.75 289.505 324.909 289.44 325.095 289.44H326.383C326.57 289.44 326.729 289.505 326.859 289.636C326.99 289.767 327.055 289.925 327.055 290.112V303.692C327.055 304.943 326.841 306.053 326.411 307.024C326.001 307.995 325.31 308.76 324.339 309.32C323.387 309.88 322.099 310.16 320.475 310.16ZM320.419 301.872C321.353 301.872 322.099 301.657 322.659 301.228C323.238 300.799 323.658 300.257 323.919 299.604C324.199 298.951 324.349 298.288 324.367 297.616C324.386 297.355 324.395 297.037 324.395 296.664C324.395 296.272 324.386 295.945 324.367 295.684C324.349 295.012 324.199 294.349 323.919 293.696C323.658 293.043 323.238 292.501 322.659 292.072C322.099 291.643 321.353 291.428 320.419 291.428C319.486 291.428 318.739 291.643 318.179 292.072C317.619 292.483 317.218 293.033 316.975 293.724C316.733 294.396 316.593 295.124 316.555 295.908C316.537 296.393 316.537 296.888 316.555 297.392C316.593 298.176 316.733 298.913 316.975 299.604C317.218 300.276 317.619 300.827 318.179 301.256C318.739 301.667 319.486 301.872 320.419 301.872ZM337.014 304.28C335.092 304.28 333.561 303.692 332.422 302.516C331.284 301.321 330.658 299.697 330.546 297.644C330.528 297.401 330.518 297.093 330.518 296.72C330.518 296.328 330.528 296.011 330.546 295.768C330.621 294.443 330.929 293.285 331.47 292.296C332.012 291.288 332.749 290.513 333.682 289.972C334.634 289.431 335.745 289.16 337.014 289.16C338.433 289.16 339.618 289.459 340.57 290.056C341.541 290.653 342.278 291.503 342.782 292.604C343.286 293.705 343.538 294.993 343.538 296.468V296.944C343.538 297.149 343.473 297.308 343.342 297.42C343.23 297.532 343.081 297.588 342.894 297.588H333.206C333.206 297.607 333.206 297.644 333.206 297.7C333.206 297.756 333.206 297.803 333.206 297.84C333.244 298.605 333.412 299.324 333.71 299.996C334.009 300.649 334.438 301.181 334.998 301.592C335.558 302.003 336.23 302.208 337.014 302.208C337.686 302.208 338.246 302.105 338.694 301.9C339.142 301.695 339.506 301.471 339.786 301.228C340.066 300.967 340.253 300.771 340.346 300.64C340.514 300.397 340.645 300.257 340.738 300.22C340.832 300.164 340.981 300.136 341.186 300.136H342.53C342.717 300.136 342.866 300.192 342.978 300.304C343.109 300.397 343.165 300.537 343.146 300.724C343.128 301.004 342.978 301.349 342.698 301.76C342.418 302.152 342.017 302.544 341.494 302.936C340.972 303.328 340.337 303.655 339.59 303.916C338.844 304.159 337.985 304.28 337.014 304.28ZM333.206 295.656H340.878V295.572C340.878 294.732 340.72 293.985 340.402 293.332C340.104 292.679 339.665 292.165 339.086 291.792C338.508 291.4 337.817 291.204 337.014 291.204C336.212 291.204 335.521 291.4 334.942 291.792C334.382 292.165 333.953 292.679 333.654 293.332C333.356 293.985 333.206 294.732 333.206 295.572V295.656Z" fill="#480CA8"/>
<defs>
<filter id="filter0_b_102_1078" x="-20" y="-20" width="430" height="430" filterUnits="userSpaceOnUse" color-interpolation-filters="sRGB">
<feFlood flood-opacity="0" result="BackgroundImageFix"/>
<feGaussianBlur in="BackgroundImage" stdDeviation="10"/>
<feComposite in2="SourceAlpha" operator="in" result="effect1_backgroundBlur_102_1078"/>
<feBlend mode="normal" in="SourceGraphic" in2="effect1_backgroundBlur_102_1078" result="shape"/>
</filter>
<radialGradient id="paint0_radial_102_1078" cx="0" cy="0" r="1" gradientUnits="userSpaceOnUse" gradientTransform="rotate(45) scale(551.543 1378.86)">
<stop stop-color="white" stop-opacity="0.7"/>
<stop offset="1" stop-color="white" stop-opacity="0.1"/>
</radialGradient>
</defs>
</svg>
